<svg xmlns="http://www.w3.org/2000/svg" width="375" viewBox="0 0 375 375" height="375" version="1.0"><g><g><g><path d="M 12.28125 -4.765625 C 12.28125 -3.210938 11.722656 -1.988281 10.609375 -1.09375 C 9.492188 -0.207031 7.941406 0.234375 5.953125 0.234375 C 4.128906 0.234375 2.515625 -0.109375 1.109375 -0.796875 L 1.109375 -4.171875 C 2.265625 -3.660156 3.242188 -3.296875 4.046875 -3.078125 C 4.847656 -2.867188 5.582031 -2.765625 6.25 -2.765625 C 7.039062 -2.765625 7.648438 -2.914062 8.078125 -3.21875 C 8.503906 -3.53125 8.71875 -3.988281 8.71875 -4.59375 C 8.71875 -4.925781 8.625 -5.222656 8.4375 -5.484375 C 8.25 -5.742188 7.972656 -5.992188 7.609375 -6.234375 C 7.242188 -6.484375 6.503906 -6.875 5.390625 -7.40625 C 4.335938 -7.894531 3.546875 -8.363281 3.015625 -8.8125 C 2.492188 -9.269531 2.078125 -9.800781 1.765625 -10.40625 C 1.453125 -11.007812 1.296875 -11.710938 1.296875 -12.515625 C 1.296875 -14.035156 1.8125 -15.226562 2.84375 -16.09375 C 3.875 -16.96875 5.296875 -17.40625 7.109375 -17.40625 C 8.003906 -17.40625 8.851562 -17.296875 9.65625 -17.078125 C 10.46875 -16.867188 11.316406 -16.570312 12.203125 -16.1875 L 11.03125 -13.359375 C 10.113281 -13.734375 9.351562 -13.992188 8.75 -14.140625 C 8.15625 -14.296875 7.570312 -14.375 7 -14.375 C 6.300781 -14.375 5.769531 -14.210938 5.40625 -13.890625 C 5.039062 -13.566406 4.859375 -13.148438 4.859375 -12.640625 C 4.859375 -12.316406 4.929688 -12.035156 5.078125 -11.796875 C 5.222656 -11.554688 5.457031 -11.320312 5.78125 -11.09375 C 6.113281 -10.875 6.882812 -10.476562 8.09375 -9.90625 C 9.695312 -9.132812 10.796875 -8.363281 11.390625 -7.59375 C 11.984375 -6.820312 12.28125 -5.878906 12.28125 -4.765625 Z M 12.28125 -4.765625" transform="translate(37.773 204.884)"/></g></g></g><g><g><g><path d="M 8.78125 0 L 5.140625 0 L 5.140625 -14.125 L 0.484375 -14.125 L 0.484375 -17.15625 L 13.4375 -17.15625 L 13.4375 -14.125 L 8.78125 -14.125 Z M 8.78125 0" transform="translate(57.301 204.884)"/></g></g></g><g><g><g><path d="M 16.125 -17.15625 L 16.125 -6.0625 C 16.125 -4.789062 15.835938 -3.675781 15.265625 -2.71875 C 14.703125 -1.769531 13.882812 -1.039062 12.8125 -0.53125 C 11.738281 -0.0195312 10.472656 0.234375 9.015625 0.234375 C 6.804688 0.234375 5.09375 -0.328125 3.875 -1.453125 C 2.65625 -2.585938 2.046875 -4.140625 2.046875 -6.109375 L 2.046875 -17.15625 L 5.671875 -17.15625 L 5.671875 -6.65625 C 5.671875 -5.332031 5.9375 -4.359375 6.46875 -3.734375 C 7 -3.117188 7.878906 -2.8125 9.109375 -2.8125 C 10.296875 -2.8125 11.15625 -3.125 11.6875 -3.75 C 12.226562 -4.375 12.5 -5.347656 12.5 -6.671875 L 12.5 -17.15625 Z M 16.125 -17.15625" transform="translate(77.509 204.884)"/></g></g></g><g><g><g><path d="M 16.390625 -8.734375 C 16.390625 -5.910156 15.582031 -3.75 13.96875 -2.25 C 12.363281 -0.75 10.046875 0 7.015625 0 L 2.15625 0 L 2.15625 -17.15625 L 7.546875 -17.15625 C 10.347656 -17.15625 12.519531 -16.414062 14.0625 -14.9375 C 15.613281 -13.457031 16.390625 -11.390625 16.390625 -8.734375 Z M 12.609375 -8.640625 C 12.609375 -12.328125 10.984375 -14.171875 7.734375 -14.171875 L 5.796875 -14.171875 L 5.796875 -3 L 7.359375 -3 C 10.859375 -3 12.609375 -4.878906 12.609375 -8.640625 Z M 12.609375 -8.640625" transform="translate(101.963 204.884)"/></g></g></g><g><g><g><path d="M 7.5 -10.09375 L 11.078125 -17.15625 L 15 -17.15625 L 9.3125 -6.671875 L 9.3125 0 L 5.6875 0 L 5.6875 -6.5625 L 0 -17.15625 L 3.9375 -17.15625 Z M 7.5 -10.09375" transform="translate(126.042 204.884)"/></g></g></g><g><g><g><path d="M 5.796875 -9.078125 L 7 -9.078125 C 8.113281 -9.078125 8.945312 -9.296875 9.5 -9.734375 C 10.0625 -10.179688 10.34375 -10.828125 10.34375 -11.671875 C 10.34375 -12.523438 10.109375 -13.15625 9.640625 -13.5625 C 9.171875 -13.96875 8.441406 -14.171875 7.453125 -14.171875 L 5.796875 -14.171875 Z M 14.015625 -11.796875 C 14.015625 -9.953125 13.4375 -8.539062 12.28125 -7.5625 C 11.125 -6.59375 9.484375 -6.109375 7.359375 -6.109375 L 5.796875 -6.109375 L 5.796875 0 L 2.15625 0 L 2.15625 -17.15625 L 7.640625 -17.15625 C 9.722656 -17.15625 11.304688 -16.707031 12.390625 -15.8125 C 13.472656 -14.914062 14.015625 -13.578125 14.015625 -11.796875 Z M 14.015625 -11.796875" transform="translate(147.33 204.884)"/></g></g></g><g><g><g><path d="M 17.734375 -8.59375 C 17.734375 -5.757812 17.023438 -3.578125 15.609375 -2.046875 C 14.203125 -0.523438 12.1875 0.234375 9.5625 0.234375 C 6.9375 0.234375 4.914062 -0.523438 3.5 -2.046875 C 2.09375 -3.578125 1.390625 -5.769531 1.390625 -8.625 C 1.390625 -11.476562 2.09375 -13.65625 3.5 -15.15625 C 4.914062 -16.664062 6.945312 -17.421875 9.59375 -17.421875 C 12.226562 -17.421875 14.242188 -16.660156 15.640625 -15.140625 C 17.035156 -13.628906 17.734375 -11.445312 17.734375 -8.59375 Z M 5.203125 -8.59375 C 5.203125 -6.675781 5.566406 -5.234375 6.296875 -4.265625 C 7.023438 -3.296875 8.113281 -2.8125 9.5625 -2.8125 C 12.46875 -2.8125 13.921875 -4.738281 13.921875 -8.59375 C 13.921875 -12.457031 12.476562 -14.390625 9.59375 -14.390625 C 8.144531 -14.390625 7.050781 -13.898438 6.3125 -12.921875 C 5.570312 -11.953125 5.203125 -10.507812 5.203125 -8.59375 Z M 5.203125 -8.59375" transform="translate(168.71 204.884)"/></g></g></g><g><g><g><path d="M 2.15625 0 L 2.15625 -17.15625 L 5.796875 -17.15625 L 5.796875 0 Z M 2.15625 0" transform="translate(194.126 204.884)"/></g></g></g><g><g><g><path d="M 17.375 0 L 12.75 0 L 5.296875 -12.984375 L 5.1875 -12.984375 C 5.332031 -10.691406 5.40625 -9.054688 5.40625 -8.078125 L 5.40625 0 L 2.15625 0 L 2.15625 -17.15625 L 6.75 -17.15625 L 14.203125 -4.3125 L 14.28125 -4.3125 C 14.164062 -6.539062 14.109375 -8.113281 14.109375 -9.03125 L 14.109375 -17.15625 L 17.375 -17.15625 Z M 17.375 0" transform="translate(208.375 204.884)"/></g></g></g><g><g><g><path d="M 8.78125 0 L 5.140625 0 L 5.140625 -14.125 L 0.484375 -14.125 L 0.484375 -17.15625 L 13.4375 -17.15625 L 13.4375 -14.125 L 8.78125 -14.125 Z M 8.78125 0" transform="translate(234.202 204.884)"/></g></g></g><g><g><g><path d="M 1.375 -1.671875 C 1.375 -2.328125 1.546875 -2.820312 1.890625 -3.15625 C 2.242188 -3.5 2.757812 -3.671875 3.4375 -3.671875 C 4.082031 -3.671875 4.582031 -3.5 4.9375 -3.15625 C 5.300781 -2.8125 5.484375 -2.316406 5.484375 -1.671875 C 5.484375 -1.054688 5.300781 -0.570312 4.9375 -0.21875 C 4.582031 0.132812 4.082031 0.3125 3.4375 0.3125 C 2.78125 0.3125 2.269531 0.140625 1.90625 -0.203125 C 1.550781 -0.554688 1.375 -1.046875 1.375 -1.671875 Z M 1.375 -1.671875" transform="translate(254.41 204.884)"/></g></g></g><g><g><g><path d="M 9.453125 -14.375 C 8.078125 -14.375 7.015625 -13.859375 6.265625 -12.828125 C 5.515625 -11.796875 5.140625 -10.363281 5.140625 -8.53125 C 5.140625 -4.707031 6.578125 -2.796875 9.453125 -2.796875 C 10.648438 -2.796875 12.109375 -3.097656 13.828125 -3.703125 L 13.828125 -0.640625 C 12.410156 -0.0546875 10.835938 0.234375 9.109375 0.234375 C 6.609375 0.234375 4.695312 -0.519531 3.375 -2.03125 C 2.050781 -3.550781 1.390625 -5.722656 1.390625 -8.546875 C 1.390625 -10.335938 1.710938 -11.898438 2.359375 -13.234375 C 3.015625 -14.578125 3.953125 -15.609375 5.171875 -16.328125 C 6.390625 -17.046875 7.816406 -17.40625 9.453125 -17.40625 C 11.109375 -17.40625 12.78125 -17 14.46875 -16.1875 L 13.296875 -13.234375 C 12.648438 -13.535156 12.003906 -13.800781 11.359375 -14.03125 C 10.710938 -14.257812 10.078125 -14.375 9.453125 -14.375 Z M 9.453125 -14.375" transform="translate(267.556 204.884)"/></g></g></g><g><g><g><path d="M 17.734375 -8.59375 C 17.734375 -5.757812 17.023438 -3.578125 15.609375 -2.046875 C 14.203125 -0.523438 12.1875 0.234375 9.5625 0.234375 C 6.9375 0.234375 4.914062 -0.523438 3.5 -2.046875 C 2.09375 -3.578125 1.390625 -5.769531 1.390625 -8.625 C 1.390625 -11.476562 2.09375 -13.65625 3.5 -15.15625 C 4.914062 -16.664062 6.945312 -17.421875 9.59375 -17.421875 C 12.226562 -17.421875 14.242188 -16.660156 15.640625 -15.140625 C 17.035156 -13.628906 17.734375 -11.445312 17.734375 -8.59375 Z M 5.203125 -8.59375 C 5.203125 -6.675781 5.566406 -5.234375 6.296875 -4.265625 C 7.023438 -3.296875 8.113281 -2.8125 9.5625 -2.8125 C 12.46875 -2.8125 13.921875 -4.738281 13.921875 -8.59375 C 13.921875 -12.457031 12.476562 -14.390625 9.59375 -14.390625 C 8.144531 -14.390625 7.050781 -13.898438 6.3125 -12.921875 C 5.570312 -11.953125 5.203125 -10.507812 5.203125 -8.59375 Z M 5.203125 -8.59375" transform="translate(289.16 204.884)"/></g></g></g><g><g><g><path d="M 9.421875 0 L 5.296875 -13.453125 L 5.1875 -13.453125 C 5.332031 -10.722656 5.40625 -8.898438 5.40625 -7.984375 L 5.40625 0 L 2.15625 0 L 2.15625 -17.15625 L 7.109375 -17.15625 L 11.171875 -4.03125 L 11.234375 -4.03125 L 15.546875 -17.15625 L 20.5 -17.15625 L 20.5 0 L 17.109375 0 L 17.109375 -8.125 C 17.109375 -8.5 17.113281 -8.9375 17.125 -9.4375 C 17.132812 -9.945312 17.1875 -11.28125 17.28125 -13.4375 L 17.171875 -13.4375 L 12.75 0 Z M 9.421875 0" transform="translate(314.576 204.884)"/></g></g></g></svg>