<svg xmlns="http://www.w3.org/2000/svg" xmlns:xlink="http://www.w3.org/1999/xlink" width="375" viewBox="0 0 375 375" height="375" version="1.0"><defs><clipPath id="a"><path d="M 149.628906 111.515625 L 185.019531 111.515625 L 185.019531 182.386719 L 149.628906 182.386719 Z M 149.628906 111.515625"/></clipPath><clipPath id="b"><path d="M 180.300781 172.9375 C 180.300781 175.539062 178.179688 177.660156 175.582031 177.660156 C 172.980469 177.660156 170.863281 175.539062 170.863281 172.9375 C 170.863281 171.5625 171.460938 170.25 172.5 169.347656 L 169.421875 165.777344 C 168.03125 166.976562 167.082031 168.554688 166.574219 170.269531 C 163.609375 169.429688 161.425781 166.714844 161.425781 163.488281 C 161.425781 162.507812 161.636719 161.539062 162.050781 160.617188 C 162.050781 160.609375 162.050781 160.597656 162.050781 160.589844 C 162.660156 159.242188 163.683594 158.089844 164.964844 157.351562 L 162.605469 153.253906 C 161.230469 154.046875 160.058594 155.144531 159.121094 156.398438 C 156.144531 154.195312 154.347656 150.742188 154.347656 146.949219 C 154.347656 141.292969 158.375 136.421875 163.914062 135.359375 C 165.984375 134.953125 168.179688 135.121094 170.171875 135.839844 L 171.773438 131.402344 C 169.460938 130.5625 166.953125 130.285156 164.492188 130.527344 C 164.042969 129.789062 163.785156 128.949219 163.785156 128.050781 C 163.785156 126.125 164.945312 124.472656 166.601562 123.734375 C 167.046875 125.191406 167.800781 126.539062 168.90625 127.644531 L 172.242188 124.304688 C 171.351562 123.410156 170.863281 122.230469 170.863281 120.964844 C 170.863281 118.363281 172.980469 116.242188 175.582031 116.242188 C 178.179688 116.242188 180.300781 118.363281 180.300781 120.964844 Z M 175.582031 111.515625 C 171.101562 111.515625 167.351562 114.652344 166.382812 118.84375 C 162.199219 119.8125 159.066406 123.566406 159.066406 128.050781 C 159.066406 129.316406 159.3125 130.554688 159.785156 131.6875 C 153.746094 134.207031 149.628906 140.1875 149.628906 146.949219 C 149.628906 152.578125 152.417969 157.691406 157.035156 160.738281 C 156.816406 161.632812 156.707031 162.554688 156.707031 163.488281 C 156.707031 169.28125 160.890625 174.109375 166.390625 175.105469 C 167.378906 179.277344 171.121094 182.386719 175.582031 182.386719 C 180.789062 182.386719 185.019531 178.148438 185.019531 172.9375 L 185.019531 120.964844 C 185.019531 115.75 180.789062 111.515625 175.582031 111.515625 Z M 175.582031 111.515625"/></clipPath><clipPath id="c"><path d="M 180.300781 172.9375 C 180.300781 175.539062 178.179688 177.660156 175.582031 177.660156 C 172.980469 177.660156 170.863281 175.539062 170.863281 172.9375 C 170.863281 171.5625 171.460938 170.25 172.5 169.347656 L 169.421875 165.777344 C 168.03125 166.976562 167.082031 168.554688 166.574219 170.269531 C 163.609375 169.429688 161.425781 166.714844 161.425781 163.488281 C 161.425781 162.507812 161.636719 161.539062 162.050781 160.617188 C 162.050781 160.609375 162.050781 160.597656 162.050781 160.589844 C 162.660156 159.242188 163.683594 158.089844 164.964844 157.351562 L 162.605469 153.253906 C 161.230469 154.046875 160.058594 155.144531 159.121094 156.398438 C 156.144531 154.195312 154.347656 150.742188 154.347656 146.949219 C 154.347656 141.292969 158.375 136.421875 163.914062 135.359375 C 165.984375 134.953125 168.179688 135.121094 170.171875 135.839844 L 171.773438 131.402344 C 169.460938 130.5625 166.953125 130.285156 164.492188 130.527344 C 164.042969 129.789062 163.785156 128.949219 163.785156 128.050781 C 163.785156 126.125 164.945312 124.472656 166.601562 123.734375 C 167.046875 125.191406 167.800781 126.539062 168.90625 127.644531 L 172.242188 124.304688 C 171.351562 123.410156 170.863281 122.230469 170.863281 120.964844 C 170.863281 118.363281 172.980469 116.242188 175.582031 116.242188 C 178.179688 116.242188 180.300781 118.363281 180.300781 120.964844 Z M 175.582031 111.515625 C 171.101562 111.515625 167.351562 114.652344 166.382812 118.84375 C 162.199219 119.8125 159.066406 123.566406 159.066406 128.050781 C 159.066406 129.316406 159.3125 130.554688 159.785156 131.6875 C 153.746094 134.207031 149.628906 140.1875 149.628906 146.949219 C 149.628906 152.578125 152.417969 157.691406 157.035156 160.738281 C 156.816406 161.632812 156.707031 162.554688 156.707031 163.488281 C 156.707031 169.28125 160.890625 174.109375 166.390625 175.105469 C 167.378906 179.277344 171.121094 182.386719 175.582031 182.386719 C 180.789062 182.386719 185.019531 178.148438 185.019531 172.9375 L 185.019531 120.964844 C 185.019531 115.75 180.789062 111.515625 175.582031 111.515625"/></clipPath><clipPath id="d"><path d="M 114.253906 145.703125 L 166.703125 200.09375 L 220.390625 148.195312 L 167.941406 93.808594 Z M 114.253906 145.703125"/></clipPath><clipPath id="f"><path d="M 189.738281 111.515625 L 225.128906 111.515625 L 225.128906 182.386719 L 189.738281 182.386719 Z M 189.738281 111.515625"/></clipPath><clipPath id="g"><path d="M 215.632812 156.398438 C 214.695312 155.144531 213.523438 154.046875 212.152344 153.253906 L 209.792969 157.351562 C 211.070312 158.089844 212.09375 159.242188 212.703125 160.589844 C 212.703125 160.597656 212.703125 160.609375 212.703125 160.617188 C 213.117188 161.539062 213.332031 162.507812 213.332031 163.488281 C 213.332031 166.714844 211.144531 169.429688 208.179688 170.269531 C 207.671875 168.554688 206.722656 166.976562 205.332031 165.777344 L 202.253906 169.347656 C 203.292969 170.25 203.894531 171.5625 203.894531 172.9375 C 203.894531 175.539062 201.773438 177.660156 199.175781 177.660156 C 196.574219 177.660156 194.457031 175.539062 194.457031 172.9375 L 194.457031 120.964844 C 194.457031 118.363281 196.574219 116.242188 199.175781 116.242188 C 201.773438 116.242188 203.894531 118.363281 203.894531 120.964844 C 203.894531 122.230469 203.402344 123.410156 202.511719 124.304688 L 205.847656 127.644531 C 206.953125 126.539062 207.707031 125.191406 208.152344 123.734375 C 209.808594 124.472656 210.972656 126.125 210.972656 128.050781 C 210.972656 128.9375 210.710938 129.789062 210.261719 130.527344 C 207.800781 130.285156 205.292969 130.5625 202.980469 131.402344 L 204.582031 135.839844 C 206.574219 135.121094 208.769531 134.953125 210.839844 135.359375 C 216.378906 136.421875 220.410156 141.292969 220.410156 146.949219 C 220.410156 150.742188 218.609375 154.195312 215.632812 156.398438 Z M 214.96875 131.6875 C 215.441406 130.554688 215.691406 129.316406 215.691406 128.050781 C 215.691406 123.566406 212.554688 119.8125 208.371094 118.84375 C 207.402344 114.652344 203.652344 111.515625 199.175781 111.515625 C 193.964844 111.515625 189.738281 115.75 189.738281 120.964844 L 189.738281 172.9375 C 189.738281 178.148438 193.964844 182.386719 199.175781 182.386719 C 203.632812 182.386719 207.375 179.277344 208.363281 175.105469 C 213.863281 174.109375 218.050781 169.28125 218.050781 163.488281 C 218.050781 162.554688 217.9375 161.632812 217.71875 160.738281 C 222.335938 157.691406 225.128906 152.578125 225.128906 146.949219 C 225.128906 140.1875 221.007812 134.207031 214.96875 131.6875 Z M 214.96875 131.6875"/></clipPath><clipPath id="h"><path d="M 215.632812 156.398438 C 214.695312 155.144531 213.523438 154.046875 212.152344 153.253906 L 209.792969 157.351562 C 211.070312 158.089844 212.09375 159.242188 212.703125 160.589844 C 212.703125 160.597656 212.703125 160.609375 212.703125 160.617188 C 213.117188 161.539062 213.332031 162.507812 213.332031 163.488281 C 213.332031 166.714844 211.144531 169.429688 208.179688 170.269531 C 207.671875 168.554688 206.722656 166.976562 205.332031 165.777344 L 202.253906 169.347656 C 203.292969 170.25 203.894531 171.5625 203.894531 172.9375 C 203.894531 175.539062 201.773438 177.660156 199.175781 177.660156 C 196.574219 177.660156 194.457031 175.539062 194.457031 172.9375 L 194.457031 120.964844 C 194.457031 118.363281 196.574219 116.242188 199.175781 116.242188 C 201.773438 116.242188 203.894531 118.363281 203.894531 120.964844 C 203.894531 122.230469 203.402344 123.410156 202.511719 124.304688 L 205.847656 127.644531 C 206.953125 126.539062 207.707031 125.191406 208.152344 123.734375 C 209.808594 124.472656 210.972656 126.125 210.972656 128.050781 C 210.972656 128.9375 210.710938 129.789062 210.261719 130.527344 C 207.800781 130.285156 205.292969 130.5625 202.980469 131.402344 L 204.582031 135.839844 C 206.574219 135.121094 208.769531 134.953125 210.839844 135.359375 C 216.378906 136.421875 220.410156 141.292969 220.410156 146.949219 C 220.410156 150.742188 218.609375 154.195312 215.632812 156.398438 Z M 214.96875 131.6875 C 215.441406 130.554688 215.691406 129.316406 215.691406 128.050781 C 215.691406 123.566406 212.554688 119.8125 208.371094 118.84375 C 207.402344 114.652344 203.652344 111.515625 199.175781 111.515625 C 193.964844 111.515625 189.738281 115.75 189.738281 120.964844 L 189.738281 172.9375 C 189.738281 178.148438 193.964844 182.386719 199.175781 182.386719 C 203.632812 182.386719 207.375 179.277344 208.363281 175.105469 C 213.863281 174.109375 218.050781 169.28125 218.050781 163.488281 C 218.050781 162.554688 217.9375 161.632812 217.71875 160.738281 C 222.335938 157.691406 225.128906 152.578125 225.128906 146.949219 C 225.128906 140.1875 221.007812 134.207031 214.96875 131.6875"/></clipPath><clipPath id="i"><path d="M 154.363281 145.703125 L 206.8125 200.09375 L 260.5 148.195312 L 208.050781 93.808594 Z M 154.363281 145.703125"/></clipPath><clipPath id="k"><path d="M 130.753906 90.253906 L 244.003906 90.253906 L 244.003906 231.992188 L 130.753906 231.992188 Z M 130.753906 90.253906"/></clipPath><clipPath id="l"><path d="M 212.09375 181.507812 C 205.78125 186.039062 201.9375 193.375 201.597656 201.285156 L 173.15625 201.285156 C 172.816406 193.320312 169.019531 186.03125 162.789062 181.621094 C 151.589844 173.648438 144.910156 160.691406 144.910156 146.949219 C 144.910156 134.863281 150.078125 123.300781 159.09375 115.234375 C 168.226562 107.058594 180.03125 103.320312 192.328125 104.695312 C 211.992188 106.9375 227.699219 122.902344 229.644531 142.640625 C 231.15625 158.042969 224.59375 172.566406 212.09375 181.507812 Z M 208.613281 208.371094 C 208.613281 209.671875 207.550781 210.734375 206.253906 210.734375 L 168.503906 210.734375 C 167.203125 210.734375 166.144531 209.671875 166.144531 208.371094 C 166.144531 207.070312 167.203125 206.007812 168.503906 206.007812 L 206.253906 206.007812 C 207.550781 206.007812 208.613281 207.070312 208.613281 208.371094 Z M 206.253906 220.183594 L 168.503906 220.183594 C 167.203125 220.183594 166.144531 219.121094 166.144531 217.820312 C 166.144531 216.519531 167.203125 215.457031 168.503906 215.457031 L 206.253906 215.457031 C 207.550781 215.457031 208.613281 216.519531 208.613281 217.820312 C 208.613281 219.121094 207.550781 220.183594 206.253906 220.183594 Z M 194.457031 227.269531 L 180.300781 227.269531 C 178.226562 227.269531 176.335938 226.363281 175.035156 224.90625 L 199.71875 224.90625 C 198.417969 226.363281 196.527344 227.269531 194.457031 227.269531 Z M 244.003906 149.3125 L 244.003906 144.589844 L 234.5 144.589844 C 234.464844 143.785156 234.417969 142.992188 234.34375 142.179688 C 233.753906 136.199219 231.992188 130.542969 229.347656 125.414062 L 237.597656 120.652344 L 235.238281 116.554688 L 226.980469 121.335938 C 223.347656 115.722656 218.566406 110.933594 212.972656 107.300781 L 217.734375 99.03125 L 213.644531 96.667969 L 208.898438 104.910156 C 203.976562 102.371094 198.574219 100.65625 192.851562 100 C 191.808594 99.890625 190.777344 99.863281 189.738281 99.816406 L 189.738281 90.253906 L 185.019531 90.253906 L 185.019531 99.816406 C 178.269531 100.136719 171.792969 101.875 165.875 104.9375 L 161.109375 96.667969 L 157.019531 99.03125 L 161.792969 107.308594 C 159.765625 108.636719 157.792969 110.066406 155.941406 111.71875 C 152.769531 114.5625 150.023438 117.792969 147.757812 121.316406 L 139.515625 116.554688 L 137.15625 120.652344 L 145.386719 125.414062 C 142.363281 131.320312 140.585938 137.851562 140.253906 144.589844 L 130.753906 144.589844 L 130.753906 149.3125 L 140.261719 149.3125 C 140.59375 156.058594 142.375 162.59375 145.398438 168.488281 L 137.15625 173.25 L 139.515625 177.347656 L 147.773438 172.578125 C 150.980469 177.550781 155.121094 181.953125 160.058594 185.46875 C 160.632812 185.875 161.164062 186.324219 161.683594 186.785156 L 157.019531 194.871094 L 161.109375 197.234375 L 164.964844 190.550781 C 167.027344 193.652344 168.234375 197.363281 168.4375 201.292969 C 164.566406 201.328125 161.425781 204.484375 161.425781 208.371094 C 161.425781 210.199219 162.132812 211.839844 163.265625 213.09375 C 162.132812 214.351562 161.425781 216.003906 161.425781 217.820312 C 161.425781 221.734375 164.59375 224.90625 168.503906 224.90625 L 169.496094 224.90625 C 171.339844 229.160156 175.542969 231.992188 180.300781 231.992188 L 194.457031 231.992188 C 199.210938 231.992188 203.414062 229.160156 205.257812 224.90625 L 206.253906 224.90625 C 210.160156 224.90625 213.332031 221.734375 213.332031 217.820312 C 213.332031 216.003906 212.621094 214.351562 211.488281 213.09375 C 212.621094 211.839844 213.332031 210.199219 213.332031 208.371094 C 213.332031 204.484375 210.1875 201.328125 206.316406 201.292969 C 206.519531 197.40625 207.726562 193.699219 209.808594 190.578125 L 213.644531 197.234375 L 217.734375 194.871094 L 213.070312 186.785156 C 213.632812 186.28125 214.222656 185.789062 214.839844 185.347656 C 219.78125 181.8125 223.875 177.476562 227.035156 172.605469 L 235.238281 177.347656 L 237.597656 173.25 L 229.414062 168.523438 C 232.425781 162.636719 234.175781 156.113281 234.5 149.3125 Z M 244.003906 149.3125"/></clipPath><clipPath id="m"><path d="M 212.09375 181.507812 C 205.78125 186.039062 201.9375 193.375 201.597656 201.285156 L 173.15625 201.285156 C 172.816406 193.320312 169.019531 186.03125 162.789062 181.621094 C 151.589844 173.648438 144.910156 160.691406 144.910156 146.949219 C 144.910156 134.863281 150.078125 123.300781 159.09375 115.234375 C 168.226562 107.058594 180.03125 103.320312 192.328125 104.695312 C 211.992188 106.9375 227.699219 122.902344 229.644531 142.640625 C 231.15625 158.042969 224.59375 172.566406 212.09375 181.507812 Z M 208.613281 208.371094 C 208.613281 209.671875 207.550781 210.734375 206.253906 210.734375 L 168.503906 210.734375 C 167.203125 210.734375 166.144531 209.671875 166.144531 208.371094 C 166.144531 207.070312 167.203125 206.007812 168.503906 206.007812 L 206.253906 206.007812 C 207.550781 206.007812 208.613281 207.070312 208.613281 208.371094 Z M 206.253906 220.183594 L 168.503906 220.183594 C 167.203125 220.183594 166.144531 219.121094 166.144531 217.820312 C 166.144531 216.519531 167.203125 215.457031 168.503906 215.457031 L 206.253906 215.457031 C 207.550781 215.457031 208.613281 216.519531 208.613281 217.820312 C 208.613281 219.121094 207.550781 220.183594 206.253906 220.183594 Z M 194.457031 227.269531 L 180.300781 227.269531 C 178.226562 227.269531 176.335938 226.363281 175.035156 224.90625 L 199.71875 224.90625 C 198.417969 226.363281 196.527344 227.269531 194.457031 227.269531 Z M 244.003906 149.3125 L 244.003906 144.589844 L 234.5 144.589844 C 234.464844 143.785156 234.417969 142.992188 234.34375 142.179688 C 233.753906 136.199219 231.992188 130.542969 229.347656 125.414062 L 237.597656 120.652344 L 235.238281 116.554688 L 226.980469 121.335938 C 223.347656 115.722656 218.566406 110.933594 212.972656 107.300781 L 217.734375 99.03125 L 213.644531 96.667969 L 208.898438 104.910156 C 203.976562 102.371094 198.574219 100.65625 192.851562 100 C 191.808594 99.890625 190.777344 99.863281 189.738281 99.816406 L 189.738281 90.253906 L 185.019531 90.253906 L 185.019531 99.816406 C 178.269531 100.136719 171.792969 101.875 165.875 104.9375 L 161.109375 96.667969 L 157.019531 99.03125 L 161.792969 107.308594 C 159.765625 108.636719 157.792969 110.066406 155.941406 111.71875 C 152.769531 114.5625 150.023438 117.792969 147.757812 121.316406 L 139.515625 116.554688 L 137.15625 120.652344 L 145.386719 125.414062 C 142.363281 131.320312 140.585938 137.851562 140.253906 144.589844 L 130.753906 144.589844 L 130.753906 149.3125 L 140.261719 149.3125 C 140.59375 156.058594 142.375 162.59375 145.398438 168.488281 L 137.15625 173.25 L 139.515625 177.347656 L 147.773438 172.578125 C 150.980469 177.550781 155.121094 181.953125 160.058594 185.46875 C 160.632812 185.875 161.164062 186.324219 161.683594 186.785156 L 157.019531 194.871094 L 161.109375 197.234375 L 164.964844 190.550781 C 167.027344 193.652344 168.234375 197.363281 168.4375 201.292969 C 164.566406 201.328125 161.425781 204.484375 161.425781 208.371094 C 161.425781 210.199219 162.132812 211.839844 163.265625 213.09375 C 162.132812 214.351562 161.425781 216.003906 161.425781 217.820312 C 161.425781 221.734375 164.59375 224.90625 168.503906 224.90625 L 169.496094 224.90625 C 171.339844 229.160156 175.542969 231.992188 180.300781 231.992188 L 194.457031 231.992188 C 199.210938 231.992188 203.414062 229.160156 205.257812 224.90625 L 206.253906 224.90625 C 210.160156 224.90625 213.332031 221.734375 213.332031 217.820312 C 213.332031 216.003906 212.621094 214.351562 211.488281 213.09375 C 212.621094 211.839844 213.332031 210.199219 213.332031 208.371094 C 213.332031 204.484375 210.1875 201.328125 206.316406 201.292969 C 206.519531 197.40625 207.726562 193.699219 209.808594 190.578125 L 213.644531 197.234375 L 217.734375 194.871094 L 213.070312 186.785156 C 213.632812 186.28125 214.222656 185.789062 214.839844 185.347656 C 219.78125 181.8125 223.875 177.476562 227.035156 172.605469 L 235.238281 177.347656 L 237.597656 173.25 L 229.414062 168.523438 C 232.425781 162.636719 234.175781 156.113281 234.5 149.3125 L 244.003906 149.3125"/></clipPath><clipPath id="n"><path d="M 60.015625 158.640625 L 185.386719 288.652344 L 314.738281 163.605469 L 189.367188 33.597656 Z M 60.015625 158.640625"/></clipPath><linearGradient x1=".261" gradientTransform="matrix(136.84375 -132.28906 132.125 137.01367 108.715 211.59)" xmlns:xlink="http://www.w3.org/1999/xlink" y1="0" x2=".654" gradientUnits="userSpaceOnUse" y2="0" xlink:type="simple" xlink:actuate="onLoad" id="e" xlink:show="other"><stop stop-color="#F2B725" offset="0"/><stop stop-color="#F2B725" offset=".008"/><stop stop-color="#F2B725" offset=".016"/><stop stop-color="#F2B625" offset=".023"/><stop stop-color="#F1B526" offset=".031"/><stop stop-color="#F1B427" offset=".039"/><stop stop-color="#F1B327" offset=".047"/><stop stop-color="#F1B327" offset=".055"/><stop stop-color="#F1B228" offset=".063"/><stop stop-color="#F1B128" offset=".066"/><stop stop-color="#F1B128" offset=".07"/><stop stop-color="#F0B129" offset=".078"/><stop stop-color="#F0B029" offset=".086"/><stop stop-color="#F0AF2A" offset=".094"/><stop stop-color="#F0AF2A" offset=".102"/><stop stop-color="#F0AE2A" offset=".105"/><stop stop-color="#F0AE2A" offset=".109"/><stop stop-color="#F0AD2B" offset=".125"/><stop stop-color="#EFAC2C" offset=".133"/><stop stop-color="#EFAC2C" offset=".141"/><stop stop-color="#EFAB2C" offset=".145"/><stop stop-color="#EFAA2D" offset=".148"/><stop stop-color="#EFAA2D" offset=".156"/><stop stop-color="#EFAA2D" offset=".164"/><stop stop-color="#EFA92D" offset=".172"/><stop stop-color="#EEA82E" offset=".188"/><stop stop-color="#EEA72F" offset=".191"/><stop stop-color="#EEA62F" offset=".195"/><stop stop-color="#EEA62F" offset=".203"/><stop stop-color="#EEA530" offset=".211"/><stop stop-color="#EEA430" offset=".219"/><stop stop-color="#EEA430" offset=".227"/><stop stop-color="#EDA331" offset=".23"/><stop stop-color="#EDA331" offset=".234"/><stop stop-color="#EDA232" offset=".242"/><stop stop-color="#EDA132" offset=".25"/><stop stop-color="#EDA132" offset=".258"/><stop stop-color="#EDA033" offset=".266"/><stop stop-color="#EDA033" offset=".273"/><stop stop-color="#EC9F34" offset=".281"/><stop stop-color="#EC9F34" offset=".289"/><stop stop-color="#EC9E35" offset=".297"/><stop stop-color="#EC9D36" offset=".313"/><stop stop-color="#EC9C36" offset=".316"/><stop stop-color="#EC9B36" offset=".32"/><stop stop-color="#EC9B36" offset=".328"/><stop stop-color="#EB9B37" offset=".336"/><stop stop-color="#EB9A37" offset=".344"/><stop stop-color="#EB9938" offset=".352"/><stop stop-color="#EB9838" offset=".355"/><stop stop-color="#EB9838" offset=".359"/><stop stop-color="#EB9739" offset=".367"/><stop stop-color="#EB9639" offset=".375"/><stop stop-color="#EB9539" offset=".391"/><stop stop-color="#EA943A" offset=".395"/><stop stop-color="#EA943A" offset=".398"/><stop stop-color="#EA943A" offset=".406"/><stop stop-color="#EA933B" offset=".414"/><stop stop-color="#EA933B" offset=".422"/><stop stop-color="#EA923C" offset=".438"/><stop stop-color="#E9913C" offset=".441"/><stop stop-color="#E9903D" offset=".445"/><stop stop-color="#E9903D" offset=".453"/><stop stop-color="#E9903D" offset=".461"/><stop stop-color="#E98F3E" offset=".469"/><stop stop-color="#E98E3E" offset=".477"/><stop stop-color="#E98D3F" offset=".484"/><stop stop-color="#E98C3F" offset=".492"/><stop stop-color="#E88C3F" offset=".5"/><stop stop-color="#E88B40" offset=".516"/><stop stop-color="#E88941" offset=".52"/><stop stop-color="#E88941" offset=".523"/><stop stop-color="#E88942" offset=".531"/><stop stop-color="#E88842" offset=".539"/><stop stop-color="#E78742" offset=".547"/><stop stop-color="#E78743" offset=".555"/><stop stop-color="#E78643" offset=".563"/><stop stop-color="#E78644" offset=".566"/><stop stop-color="#E78544" offset=".57"/><stop stop-color="#E78544" offset=".578"/><stop stop-color="#E78545" offset=".586"/><stop stop-color="#E78445" offset=".594"/><stop stop-color="#E68345" offset=".602"/><stop stop-color="#E68246" offset=".605"/><stop stop-color="#E68246" offset=".609"/><stop stop-color="#E68246" offset=".617"/><stop stop-color="#E68146" offset=".625"/><stop stop-color="#E68047" offset=".641"/><stop stop-color="#E57F48" offset=".645"/><stop stop-color="#E57E48" offset=".648"/><stop stop-color="#E57E48" offset=".656"/><stop stop-color="#E57D48" offset=".664"/><stop stop-color="#E57D49" offset=".672"/><stop stop-color="#E57C49" offset=".68"/><stop stop-color="#E57B4A" offset=".688"/><stop stop-color="#E47A4A" offset=".691"/><stop stop-color="#E47A4B" offset=".695"/><stop stop-color="#E47A4B" offset=".703"/><stop stop-color="#E47A4B" offset=".711"/><stop stop-color="#E4794B" offset=".719"/><stop stop-color="#E4784C" offset=".727"/><stop stop-color="#E4774C" offset=".734"/><stop stop-color="#E3774D" offset=".742"/><stop stop-color="#E3764D" offset=".75"/><stop stop-color="#E3754E" offset=".766"/><stop stop-color="#E3744F" offset=".77"/><stop stop-color="#E3734F" offset=".773"/><stop stop-color="#E3734F" offset=".781"/><stop stop-color="#E37350" offset=".789"/><stop stop-color="#E27250" offset=".797"/><stop stop-color="#E27151" offset=".805"/><stop stop-color="#E27151" offset=".813"/><stop stop-color="#E27051" offset=".816"/><stop stop-color="#E26F51" offset=".82"/><stop stop-color="#E26E52" offset=".824"/><stop stop-color="#E26E52" offset=".828"/><stop stop-color="#E16E52" offset=".844"/><stop stop-color="#E16D53" offset=".852"/><stop stop-color="#E16C53" offset=".859"/><stop stop-color="#E16C54" offset=".867"/><stop stop-color="#E16B54" offset=".875"/><stop stop-color="#E16A54" offset=".883"/><stop stop-color="#E16A55" offset=".891"/><stop stop-color="#E06955" offset=".895"/><stop stop-color="#E06856" offset=".898"/><stop stop-color="#E06856" offset=".906"/><stop stop-color="#E06856" offset=".914"/><stop stop-color="#E06757" offset=".922"/><stop stop-color="#E06657" offset=".938"/><stop stop-color="#E06558" offset=".941"/><stop stop-color="#DF6458" offset=".945"/><stop stop-color="#DF6458" offset=".949"/><stop stop-color="#DF6359" offset=".953"/><stop stop-color="#DF6359" offset=".969"/><stop stop-color="#DF625A" offset=".977"/><stop stop-color="#DF615A" offset=".984"/><stop stop-color="#DF605A" offset=".992"/><stop stop-color="#DF605B" offset="1"/></linearGradient><linearGradient x1=".413" gradientTransform="matrix(136.84375 -132.28906 132.125 137.01367 120.267 223.567)" xmlns:xlink="http://www.w3.org/1999/xlink" y1="0" x2=".805" gradientUnits="userSpaceOnUse" y2="0" xlink:type="simple" xlink:actuate="onLoad" id="j" xlink:show="other"><stop stop-color="#EA953A" offset="0"/><stop stop-color="#EA943A" offset=".016"/><stop stop-color="#EA933A" offset=".02"/><stop stop-color="#EA933B" offset=".023"/><stop stop-color="#EA933B" offset=".031"/><stop stop-color="#EA923B" offset=".039"/><stop stop-color="#EA923C" offset=".047"/><stop stop-color="#EA913C" offset=".055"/><stop stop-color="#E9913D" offset=".063"/><stop stop-color="#E9903D" offset=".066"/><stop stop-color="#E98F3D" offset=".07"/><stop stop-color="#E98F3D" offset=".078"/><stop stop-color="#E98F3E" offset=".086"/><stop stop-color="#E98E3E" offset=".094"/><stop stop-color="#E98D3F" offset=".102"/><stop stop-color="#E88C3F" offset=".105"/><stop stop-color="#E88C40" offset=".109"/><stop stop-color="#E88B40" offset=".117"/><stop stop-color="#E88A40" offset=".125"/><stop stop-color="#E88A40" offset=".133"/><stop stop-color="#E88941" offset=".141"/><stop stop-color="#E88842" offset=".145"/><stop stop-color="#E88842" offset=".148"/><stop stop-color="#E88842" offset=".156"/><stop stop-color="#E78743" offset=".164"/><stop stop-color="#E78643" offset=".172"/><stop stop-color="#E78644" offset=".188"/><stop stop-color="#E78544" offset=".191"/><stop stop-color="#E78444" offset=".195"/><stop stop-color="#E68445" offset=".203"/><stop stop-color="#E68445" offset=".211"/><stop stop-color="#E68346" offset=".219"/><stop stop-color="#E68246" offset=".227"/><stop stop-color="#E68146" offset=".234"/><stop stop-color="#E68047" offset=".242"/><stop stop-color="#E67F47" offset=".246"/><stop stop-color="#E67F47" offset=".25"/><stop stop-color="#E67F47" offset=".258"/><stop stop-color="#E57F48" offset=".266"/><stop stop-color="#E57D48" offset=".27"/><stop stop-color="#E57D49" offset=".273"/><stop stop-color="#E57D49" offset=".281"/><stop stop-color="#E57C49" offset=".289"/><stop stop-color="#E57B49" offset=".297"/><stop stop-color="#E47B4A" offset=".305"/><stop stop-color="#E47A4A" offset=".313"/><stop stop-color="#E47A4B" offset=".32"/><stop stop-color="#E4794C" offset=".328"/><stop stop-color="#E4784C" offset=".344"/><stop stop-color="#E4774C" offset=".348"/><stop stop-color="#E4764D" offset=".352"/><stop stop-color="#E3764D" offset=".355"/><stop stop-color="#E3764D" offset=".359"/><stop stop-color="#E3764E" offset=".363"/><stop stop-color="#E3754E" offset=".367"/><stop stop-color="#E3754E" offset=".375"/><stop stop-color="#E3744F" offset=".383"/><stop stop-color="#E3744F" offset=".391"/><stop stop-color="#E3734F" offset=".395"/><stop stop-color="#E3724F" offset=".398"/><stop stop-color="#E27250" offset=".406"/><stop stop-color="#E27150" offset=".414"/><stop stop-color="#E27051" offset=".422"/><stop stop-color="#E26F52" offset=".438"/><stop stop-color="#E26E52" offset=".441"/><stop stop-color="#E26E52" offset=".445"/><stop stop-color="#E26D52" offset=".453"/><stop stop-color="#E16D53" offset=".469"/><stop stop-color="#E16C53" offset=".477"/><stop stop-color="#E16B54" offset=".484"/><stop stop-color="#E16B54" offset=".492"/><stop stop-color="#E16A55" offset=".5"/><stop stop-color="#E06955" offset=".508"/><stop stop-color="#E06955" offset=".512"/><stop stop-color="#E06856" offset=".516"/><stop stop-color="#E06856" offset=".52"/><stop stop-color="#E06756" offset=".523"/><stop stop-color="#E06756" offset=".531"/><stop stop-color="#E06657" offset=".535"/><stop stop-color="#E06657" offset=".539"/><stop stop-color="#E06557" offset=".547"/><stop stop-color="#E06458" offset=".555"/><stop stop-color="#E06458" offset=".563"/><stop stop-color="#DF6358" offset=".566"/><stop stop-color="#DF6359" offset=".57"/><stop stop-color="#DF6259" offset=".578"/><stop stop-color="#DF625A" offset=".586"/><stop stop-color="#DF615A" offset=".594"/><stop stop-color="#DF605B" offset=".598"/><stop stop-color="#DF605B" offset=".602"/><stop stop-color="#DF605B" offset=".605"/><stop stop-color="#DE605B" offset=".609"/><stop stop-color="#DE5F5B" offset=".617"/><stop stop-color="#DE5F5C" offset=".625"/><stop stop-color="#DE5E5C" offset=".633"/><stop stop-color="#DE5E5D" offset=".637"/><stop stop-color="#DE5D5D" offset=".641"/><stop stop-color="#DE5D5D" offset=".645"/><stop stop-color="#DE5C5D" offset=".648"/><stop stop-color="#DE5C5E" offset=".656"/><stop stop-color="#DE5B5E" offset=".664"/><stop stop-color="#DD5A5E" offset=".672"/><stop stop-color="#DD595F" offset=".688"/><stop stop-color="#DD585F" offset=".691"/><stop stop-color="#DD5860" offset=".695"/><stop stop-color="#DD5760" offset=".703"/><stop stop-color="#DD5760" offset=".711"/><stop stop-color="#DC5661" offset=".719"/><stop stop-color="#DC5561" offset=".727"/><stop stop-color="#DC5561" offset=".73"/><stop stop-color="#DC5562" offset=".734"/><stop stop-color="#DC5462" offset=".742"/><stop stop-color="#DC5362" offset=".75"/><stop stop-color="#DC5363" offset=".758"/><stop stop-color="#DC5263" offset=".766"/><stop stop-color="#DB5264" offset=".77"/><stop stop-color="#DB5164" offset=".773"/><stop stop-color="#DB5165" offset=".781"/><stop stop-color="#DB5065" offset=".789"/><stop stop-color="#DB5065" offset=".797"/><stop stop-color="#DB4F66" offset=".805"/><stop stop-color="#DB4E66" offset=".813"/><stop stop-color="#DA4D67" offset=".816"/><stop stop-color="#DA4D67" offset=".82"/><stop stop-color="#DA4C67" offset=".828"/><stop stop-color="#DA4C68" offset=".836"/><stop stop-color="#DA4B68" offset=".844"/><stop stop-color="#DA4A68" offset=".852"/><stop stop-color="#DA4A69" offset=".855"/><stop stop-color="#DA4A69" offset=".859"/><stop stop-color="#D94969" offset=".867"/><stop stop-color="#D9486A" offset=".875"/><stop stop-color="#D9486A" offset=".883"/><stop stop-color="#D9476B" offset=".891"/><stop stop-color="#D9466B" offset=".898"/><stop stop-color="#D9466B" offset=".906"/><stop stop-color="#D8456C" offset=".914"/><stop stop-color="#D8456C" offset=".918"/><stop stop-color="#D8446C" offset=".922"/><stop stop-color="#D8446D" offset=".938"/><stop stop-color="#D8426D" offset=".941"/><stop stop-color="#D8426E" offset=".945"/><stop stop-color="#D8416E" offset=".953"/><stop stop-color="#D8416E" offset=".961"/><stop stop-color="#D7406E" offset=".969"/><stop stop-color="#D73F6F" offset=".977"/><stop stop-color="#D73F6F" offset=".98"/><stop stop-color="#D73F70" offset=".984"/><stop stop-color="#D73E70" offset=".992"/><stop stop-color="#D73D71" offset="1"/></linearGradient><linearGradient x1=".009" gradientTransform="matrix(136.84375 -132.28906 132.125 137.01367 119.823 223.107)" xmlns:xlink="http://www.w3.org/1999/xlink" y1="0" x2=".954" gradientUnits="userSpaceOnUse" y2="0" xlink:type="simple" xlink:actuate="onLoad" id="o" xlink:show="other"><stop stop-color="#FFF001" offset="0"/><stop stop-color="#FEEF02" offset=".004"/><stop stop-color="#FEEE02" offset=".008"/><stop stop-color="#FEED03" offset=".012"/><stop stop-color="#FEED03" offset=".016"/><stop stop-color="#FDEC04" offset=".02"/><stop stop-color="#FDEB04" offset=".023"/><stop stop-color="#FDEA05" offset=".027"/><stop stop-color="#FDE905" offset=".031"/><stop stop-color="#FDE906" offset=".035"/><stop stop-color="#FDE806" offset=".039"/><stop stop-color="#FCE706" offset=".043"/><stop stop-color="#FCE607" offset=".047"/><stop stop-color="#FCE507" offset=".051"/><stop stop-color="#FCE408" offset=".055"/><stop stop-color="#FCE409" offset=".059"/><stop stop-color="#FCE30A" offset=".063"/><stop stop-color="#FBE20A" offset=".066"/><stop stop-color="#FBE10B" offset=".07"/><stop stop-color="#FBE00B" offset=".074"/><stop stop-color="#FBDF0C" offset=".078"/><stop stop-color="#FADF0C" offset=".086"/><stop stop-color="#FADD0D" offset=".09"/><stop stop-color="#FADC0E" offset=".094"/><stop stop-color="#FADB0E" offset=".098"/><stop stop-color="#FADA0F" offset=".102"/><stop stop-color="#F9DA0F" offset=".105"/><stop stop-color="#F9D910" offset=".109"/><stop stop-color="#F9D811" offset=".113"/><stop stop-color="#F9D711" offset=".117"/><stop stop-color="#F9D612" offset=".121"/><stop stop-color="#F9D512" offset=".125"/><stop stop-color="#F8D413" offset=".133"/><stop stop-color="#F8D313" offset=".137"/><stop stop-color="#F8D214" offset=".141"/><stop stop-color="#F8D114" offset=".145"/><stop stop-color="#F8D015" offset=".148"/><stop stop-color="#F8D015" offset=".152"/><stop stop-color="#F7CF16" offset=".156"/><stop stop-color="#F7CE16" offset=".16"/><stop stop-color="#F7CD17" offset=".164"/><stop stop-color="#F7CC17" offset=".168"/><stop stop-color="#F6CB18" offset=".172"/><stop stop-color="#F6CB18" offset=".176"/><stop stop-color="#F6CA19" offset=".18"/><stop stop-color="#F6C919" offset=".184"/><stop stop-color="#F6C81A" offset=".188"/><stop stop-color="#F6C71B" offset=".191"/><stop stop-color="#F5C61B" offset=".195"/><stop stop-color="#F5C51C" offset=".203"/><stop stop-color="#F5C41D" offset=".207"/><stop stop-color="#F5C31D" offset=".211"/><stop stop-color="#F5C21E" offset=".215"/><stop stop-color="#F4C11E" offset=".219"/><stop stop-color="#F4C11F" offset=".223"/><stop stop-color="#F4C01F" offset=".227"/><stop stop-color="#F4BF20" offset=".23"/><stop stop-color="#F3BE20" offset=".234"/><stop stop-color="#F3BD20" offset=".238"/><stop stop-color="#F3BC21" offset=".242"/><stop stop-color="#F3BB21" offset=".246"/><stop stop-color="#F3BB22" offset=".25"/><stop stop-color="#F3BA22" offset=".254"/><stop stop-color="#F2B923" offset=".258"/><stop stop-color="#F2B823" offset=".262"/><stop stop-color="#F2B724" offset=".266"/><stop stop-color="#F2B725" offset=".27"/><stop stop-color="#F2B625" offset=".273"/><stop stop-color="#F1B526" offset=".277"/><stop stop-color="#F1B426" offset=".281"/><stop stop-color="#F1B327" offset=".285"/><stop stop-color="#F1B328" offset=".289"/><stop stop-color="#F1B229" offset=".293"/><stop stop-color="#F1B129" offset=".297"/><stop stop-color="#F0B02A" offset=".301"/><stop stop-color="#F0AF2A" offset=".305"/><stop stop-color="#F0AE2A" offset=".309"/><stop stop-color="#F0AE2B" offset=".313"/><stop stop-color="#EFAD2C" offset=".316"/><stop stop-color="#EFAC2C" offset=".32"/><stop stop-color="#EFAB2C" offset=".324"/><stop stop-color="#EFAA2D" offset=".328"/><stop stop-color="#EFAA2D" offset=".332"/><stop stop-color="#EFA92E" offset=".336"/><stop stop-color="#EEA82E" offset=".34"/><stop stop-color="#EEA72F" offset=".344"/><stop stop-color="#EEA62F" offset=".348"/><stop stop-color="#EEA530" offset=".352"/><stop stop-color="#EEA430" offset=".355"/><stop stop-color="#EEA431" offset=".359"/><stop stop-color="#EDA331" offset=".363"/><stop stop-color="#EDA232" offset=".367"/><stop stop-color="#EDA132" offset=".371"/><stop stop-color="#EDA033" offset=".375"/><stop stop-color="#EC9F33" offset=".383"/><stop stop-color="#EC9E34" offset=".387"/><stop stop-color="#EC9D35" offset=".391"/><stop stop-color="#EC9C36" offset=".395"/><stop stop-color="#EC9B36" offset=".398"/><stop stop-color="#EB9A37" offset=".402"/><stop stop-color="#EB9A37" offset=".406"/><stop stop-color="#EB9938" offset=".41"/><stop stop-color="#EB9838" offset=".414"/><stop stop-color="#EB9739" offset=".418"/><stop stop-color="#EB9639" offset=".422"/><stop stop-color="#EB953A" offset=".426"/><stop stop-color="#EA953A" offset=".43"/><stop stop-color="#EA943A" offset=".434"/><stop stop-color="#EA933B" offset=".438"/><stop stop-color="#EA923B" offset=".441"/><stop stop-color="#EA913C" offset=".445"/><stop stop-color="#EA913C" offset=".453"/><stop stop-color="#E98F3D" offset=".457"/><stop stop-color="#E98E3E" offset=".461"/><stop stop-color="#E98D3E" offset=".465"/><stop stop-color="#E88C3F" offset=".469"/><stop stop-color="#E88C3F" offset=".473"/><stop stop-color="#E88B40" offset=".477"/><stop stop-color="#E88A41" offset=".48"/><stop stop-color="#E88941" offset=".484"/><stop stop-color="#E78842" offset=".488"/><stop stop-color="#E78742" offset=".492"/><stop stop-color="#E78643" offset=".5"/><stop stop-color="#E78544" offset=".504"/><stop stop-color="#E78444" offset=".508"/><stop stop-color="#E78345" offset=".512"/><stop stop-color="#E68245" offset=".516"/><stop stop-color="#E68246" offset=".52"/><stop stop-color="#E68147" offset=".523"/><stop stop-color="#E58047" offset=".527"/><stop stop-color="#E57F48" offset=".531"/><stop stop-color="#E57E48" offset=".535"/><stop stop-color="#E57D49" offset=".539"/><stop stop-color="#E57C49" offset=".543"/><stop stop-color="#E57C4A" offset=".547"/><stop stop-color="#E57B4A" offset=".551"/><stop stop-color="#E47A4B" offset=".555"/><stop stop-color="#E4794B" offset=".559"/><stop stop-color="#E4784C" offset=".563"/><stop stop-color="#E4784C" offset=".566"/><stop stop-color="#E4774D" offset=".57"/><stop stop-color="#E3764E" offset=".574"/><stop stop-color="#E3754E" offset=".578"/><stop stop-color="#E3744F" offset=".582"/><stop stop-color="#E3734F" offset=".586"/><stop stop-color="#E27350" offset=".594"/><stop stop-color="#E27151" offset=".598"/><stop stop-color="#E27051" offset=".602"/><stop stop-color="#E26F52" offset=".605"/><stop stop-color="#E26E52" offset=".609"/><stop stop-color="#E16D52" offset=".613"/><stop stop-color="#E16D53" offset=".617"/><stop stop-color="#E16C53" offset=".621"/><stop stop-color="#E16B54" offset=".625"/><stop stop-color="#E16A54" offset=".629"/><stop stop-color="#E16955" offset=".633"/><stop stop-color="#E06955" offset=".637"/><stop stop-color="#E06856" offset=".641"/><stop stop-color="#E06757" offset=".645"/><stop stop-color="#E06657" offset=".648"/><stop stop-color="#E06558" offset=".652"/><stop stop-color="#E06458" offset=".656"/><stop stop-color="#DF6359" offset=".66"/><stop stop-color="#DF6359" offset=".664"/><stop stop-color="#DF625A" offset=".668"/><stop stop-color="#DF615A" offset=".672"/><stop stop-color="#DF605B" offset=".676"/><stop stop-color="#DE5F5B" offset=".68"/><stop stop-color="#DE5F5C" offset=".684"/><stop stop-color="#DE5E5C" offset=".688"/><stop stop-color="#DE5D5D" offset=".691"/><stop stop-color="#DE5C5D" offset=".695"/><stop stop-color="#DE5B5E" offset=".699"/><stop stop-color="#DD5A5E" offset=".703"/><stop stop-color="#DD5A5F" offset=".707"/><stop stop-color="#DD595F" offset=".711"/><stop stop-color="#DD585F" offset=".715"/><stop stop-color="#DD5760" offset=".719"/><stop stop-color="#DD5660" offset=".723"/><stop stop-color="#DC5561" offset=".727"/><stop stop-color="#DC5461" offset=".73"/><stop stop-color="#DC5462" offset=".734"/><stop stop-color="#DC5363" offset=".738"/><stop stop-color="#DB5263" offset=".742"/><stop stop-color="#DB5163" offset=".746"/><stop stop-color="#DB5064" offset=".75"/><stop stop-color="#DB5065" offset=".754"/><stop stop-color="#DB4F66" offset=".758"/><stop stop-color="#DB4E66" offset=".762"/><stop stop-color="#DA4D67" offset=".766"/><stop stop-color="#DA4C67" offset=".77"/><stop stop-color="#DA4B68" offset=".773"/><stop stop-color="#DA4A69" offset=".777"/><stop stop-color="#DA4A69" offset=".781"/><stop stop-color="#D9496A" offset=".785"/><stop stop-color="#D9486A" offset=".789"/><stop stop-color="#D9476B" offset=".793"/><stop stop-color="#D9476B" offset=".797"/><stop stop-color="#D9466C" offset=".801"/><stop stop-color="#D9456C" offset=".805"/><stop stop-color="#D8446C" offset=".809"/><stop stop-color="#D8436D" offset=".813"/><stop stop-color="#D8436D" offset=".816"/><stop stop-color="#D8426E" offset=".82"/><stop stop-color="#D7416E" offset=".824"/><stop stop-color="#D7406F" offset=".828"/><stop stop-color="#D73F6F" offset=".832"/><stop stop-color="#D73E70" offset=".836"/><stop stop-color="#D73D70" offset=".84"/><stop stop-color="#D73D71" offset=".844"/><stop stop-color="#D63C71" offset=".848"/><stop stop-color="#D63B72" offset=".852"/><stop stop-color="#D63A72" offset=".855"/><stop stop-color="#D63973" offset=".859"/><stop stop-color="#D63974" offset=".863"/><stop stop-color="#D63874" offset=".867"/><stop stop-color="#D53775" offset=".871"/><stop stop-color="#D53675" offset=".875"/><stop stop-color="#D53576" offset=".879"/><stop stop-color="#D53476" offset=".883"/><stop stop-color="#D43477" offset=".887"/><stop stop-color="#D43377" offset=".891"/><stop stop-color="#D43278" offset=".895"/><stop stop-color="#D43178" offset=".898"/><stop stop-color="#D43079" offset=".902"/><stop stop-color="#D42F79" offset=".906"/><stop stop-color="#D32E7A" offset=".91"/><stop stop-color="#D32E7A" offset=".914"/><stop stop-color="#D32D7A" offset=".918"/><stop stop-color="#D32C7B" offset=".922"/><stop stop-color="#D32B7B" offset=".926"/><stop stop-color="#D32A7C" offset=".93"/><stop stop-color="#D22A7C" offset=".934"/><stop stop-color="#D2297D" offset=".938"/><stop stop-color="#D2287E" offset=".941"/><stop stop-color="#D2277E" offset=".945"/><stop stop-color="#D2267F" offset=".949"/><stop stop-color="#D2257F" offset=".953"/><stop stop-color="#D22480" offset=".961"/><stop stop-color="#D12381" offset=".965"/><stop stop-color="#D12281" offset=".969"/><stop stop-color="#D12182" offset=".973"/><stop stop-color="#D02082" offset=".977"/><stop stop-color="#D01F83" offset=".98"/><stop stop-color="#D01F84" offset=".984"/><stop stop-color="#D01E85" offset=".988"/><stop stop-color="#D01D85" offset=".992"/><stop stop-color="#D01C85" offset=".996"/><stop stop-color="#CF1B86" offset="1"/></linearGradient></defs><g clip-path="url(#a)"><g clip-path="url(#b)"><g clip-path="url(#c)"><g clip-path="url(#d)"><path fill="url(#e)" d="M 114.257812 145.707031 L 166.703125 200.089844 L 220.386719 148.195312 L 167.941406 93.808594 Z M 114.257812 145.707031"/></g></g></g></g><g clip-path="url(#f)"><g clip-path="url(#g)"><g clip-path="url(#h)"><g clip-path="url(#i)"><path fill="url(#j)" d="M 154.367188 145.707031 L 206.8125 200.089844 L 260.496094 148.195312 L 208.050781 93.808594 Z M 154.367188 145.707031"/></g></g></g></g><g clip-path="url(#k)"><g clip-path="url(#l)"><g clip-path="url(#m)"><g clip-path="url(#n)"><path fill="url(#o)" d="M 60.015625 158.640625 L 185.390625 288.652344 L 314.738281 163.609375 L 189.363281 33.59375 Z M 60.015625 158.640625"/></g></g></g></g><g fill="#FFF"><g><g><path d="M 6.15625 -2.390625 C 6.15625 -1.609375 5.875 -0.992188 5.3125 -0.546875 C 4.75 -0.0976562 3.972656 0.125 2.984375 0.125 C 2.066406 0.125 1.253906 -0.0507812 0.546875 -0.40625 L 0.546875 -2.09375 C 1.128906 -1.832031 1.617188 -1.648438 2.015625 -1.546875 C 2.421875 -1.441406 2.789062 -1.390625 3.125 -1.390625 C 3.519531 -1.390625 3.820312 -1.460938 4.03125 -1.609375 C 4.25 -1.765625 4.359375 -1.992188 4.359375 -2.296875 C 4.359375 -2.460938 4.3125 -2.609375 4.21875 -2.734375 C 4.125 -2.867188 3.984375 -3 3.796875 -3.125 C 3.617188 -3.25 3.253906 -3.441406 2.703125 -3.703125 C 2.171875 -3.953125 1.773438 -4.191406 1.515625 -4.421875 C 1.253906 -4.648438 1.046875 -4.910156 0.890625 -5.203125 C 0.734375 -5.503906 0.65625 -5.859375 0.65625 -6.265625 C 0.65625 -7.023438 0.910156 -7.625 1.421875 -8.0625 C 1.941406 -8.5 2.65625 -8.71875 3.5625 -8.71875 C 4.007812 -8.71875 4.4375 -8.660156 4.84375 -8.546875 C 5.25 -8.441406 5.671875 -8.296875 6.109375 -8.109375 L 5.515625 -6.6875 C 5.054688 -6.875 4.675781 -7.003906 4.375 -7.078125 C 4.082031 -7.160156 3.789062 -7.203125 3.5 -7.203125 C 3.15625 -7.203125 2.890625 -7.117188 2.703125 -6.953125 C 2.523438 -6.796875 2.4375 -6.585938 2.4375 -6.328125 C 2.4375 -6.171875 2.472656 -6.03125 2.546875 -5.90625 C 2.617188 -5.789062 2.734375 -5.675781 2.890625 -5.5625 C 3.054688 -5.445312 3.441406 -5.242188 4.046875 -4.953125 C 4.847656 -4.566406 5.398438 -4.179688 5.703125 -3.796875 C 6.003906 -3.410156 6.15625 -2.941406 6.15625 -2.390625 Z M 6.15625 -2.390625" transform="translate(112.558 261.333)"/></g></g></g><g fill="#FFF"><g><g><path d="M 4.390625 0 L 2.578125 0 L 2.578125 -7.078125 L 0.234375 -7.078125 L 0.234375 -8.59375 L 6.71875 -8.59375 L 6.71875 -7.078125 L 4.390625 -7.078125 Z M 4.390625 0" transform="translate(122.332 261.333)"/></g></g></g><g fill="#FFF"><g><g><path d="M 8.078125 -8.59375 L 8.078125 -3.03125 C 8.078125 -2.394531 7.929688 -1.835938 7.640625 -1.359375 C 7.359375 -0.878906 6.945312 -0.507812 6.40625 -0.25 C 5.875 0 5.242188 0.125 4.515625 0.125 C 3.410156 0.125 2.550781 -0.15625 1.9375 -0.71875 C 1.320312 -1.289062 1.015625 -2.070312 1.015625 -3.0625 L 1.015625 -8.59375 L 2.84375 -8.59375 L 2.84375 -3.328125 C 2.84375 -2.671875 2.972656 -2.1875 3.234375 -1.875 C 3.503906 -1.5625 3.945312 -1.40625 4.5625 -1.40625 C 5.15625 -1.40625 5.582031 -1.5625 5.84375 -1.875 C 6.113281 -2.1875 6.25 -2.675781 6.25 -3.34375 L 6.25 -8.59375 Z M 8.078125 -8.59375" transform="translate(132.447 261.333)"/></g></g></g><g fill="#FFF"><g><g><path d="M 8.203125 -4.375 C 8.203125 -2.957031 7.800781 -1.875 7 -1.125 C 6.195312 -0.375 5.035156 0 3.515625 0 L 1.078125 0 L 1.078125 -8.59375 L 3.78125 -8.59375 C 5.175781 -8.59375 6.257812 -8.222656 7.03125 -7.484375 C 7.8125 -6.742188 8.203125 -5.707031 8.203125 -4.375 Z M 6.3125 -4.328125 C 6.3125 -6.171875 5.5 -7.09375 3.875 -7.09375 L 2.90625 -7.09375 L 2.90625 -1.5 L 3.6875 -1.5 C 5.4375 -1.5 6.3125 -2.441406 6.3125 -4.328125 Z M 6.3125 -4.328125" transform="translate(144.687 261.333)"/></g></g></g><g fill="#FFF"><g><g><path d="M 3.75 -5.046875 L 5.546875 -8.59375 L 7.5 -8.59375 L 4.65625 -3.34375 L 4.65625 0 L 2.84375 0 L 2.84375 -3.28125 L 0 -8.59375 L 1.96875 -8.59375 Z M 3.75 -5.046875" transform="translate(156.74 261.333)"/></g></g></g><g fill="#FFF"><g><g><path d="M 2.90625 -4.546875 L 3.5 -4.546875 C 4.0625 -4.546875 4.476562 -4.65625 4.75 -4.875 C 5.03125 -5.09375 5.171875 -5.414062 5.171875 -5.84375 C 5.171875 -6.269531 5.050781 -6.582031 4.8125 -6.78125 C 4.582031 -6.988281 4.222656 -7.09375 3.734375 -7.09375 L 2.90625 -7.09375 Z M 7.015625 -5.90625 C 7.015625 -4.988281 6.722656 -4.285156 6.140625 -3.796875 C 5.566406 -3.304688 4.75 -3.0625 3.6875 -3.0625 L 2.90625 -3.0625 L 2.90625 0 L 1.078125 0 L 1.078125 -8.59375 L 3.828125 -8.59375 C 4.867188 -8.59375 5.660156 -8.367188 6.203125 -7.921875 C 6.742188 -7.472656 7.015625 -6.800781 7.015625 -5.90625 Z M 7.015625 -5.90625" transform="translate(167.394 261.333)"/></g></g></g><g fill="#FFF"><g><g><path d="M 8.875 -4.3125 C 8.875 -2.882812 8.519531 -1.785156 7.8125 -1.015625 C 7.113281 -0.253906 6.101562 0.125 4.78125 0.125 C 3.46875 0.125 2.457031 -0.253906 1.75 -1.015625 C 1.050781 -1.785156 0.703125 -2.882812 0.703125 -4.3125 C 0.703125 -5.75 1.050781 -6.84375 1.75 -7.59375 C 2.457031 -8.34375 3.472656 -8.71875 4.796875 -8.71875 C 6.117188 -8.71875 7.128906 -8.335938 7.828125 -7.578125 C 8.523438 -6.816406 8.875 -5.726562 8.875 -4.3125 Z M 2.609375 -4.3125 C 2.609375 -3.34375 2.789062 -2.613281 3.15625 -2.125 C 3.519531 -1.644531 4.0625 -1.40625 4.78125 -1.40625 C 6.238281 -1.40625 6.96875 -2.375 6.96875 -4.3125 C 6.96875 -6.238281 6.242188 -7.203125 4.796875 -7.203125 C 4.078125 -7.203125 3.53125 -6.957031 3.15625 -6.46875 C 2.789062 -5.988281 2.609375 -5.269531 2.609375 -4.3125 Z M 2.609375 -4.3125" transform="translate(178.096 261.333)"/></g></g></g><g fill="#FFF"><g><g><path d="M 1.078125 0 L 1.078125 -8.59375 L 2.90625 -8.59375 L 2.90625 0 Z M 1.078125 0" transform="translate(190.817 261.333)"/></g></g></g><g fill="#FFF"><g><g><path d="M 8.703125 0 L 6.390625 0 L 2.65625 -6.5 L 2.59375 -6.5 C 2.664062 -5.351562 2.703125 -4.535156 2.703125 -4.046875 L 2.703125 0 L 1.078125 0 L 1.078125 -8.59375 L 3.375 -8.59375 L 7.109375 -2.15625 L 7.15625 -2.15625 C 7.09375 -3.269531 7.0625 -4.0625 7.0625 -4.53125 L 7.0625 -8.59375 L 8.703125 -8.59375 Z M 8.703125 0" transform="translate(197.95 261.333)"/></g></g></g><g fill="#FFF"><g><g><path d="M 4.390625 0 L 2.578125 0 L 2.578125 -7.078125 L 0.234375 -7.078125 L 0.234375 -8.59375 L 6.71875 -8.59375 L 6.71875 -7.078125 L 4.390625 -7.078125 Z M 4.390625 0" transform="translate(210.877 261.333)"/></g></g></g><g fill="#FFF"><g><g><path d="M 0.6875 -0.84375 C 0.6875 -1.164062 0.773438 -1.410156 0.953125 -1.578125 C 1.128906 -1.753906 1.382812 -1.84375 1.71875 -1.84375 C 2.039062 -1.84375 2.289062 -1.753906 2.46875 -1.578125 C 2.65625 -1.410156 2.75 -1.164062 2.75 -0.84375 C 2.75 -0.53125 2.65625 -0.285156 2.46875 -0.109375 C 2.289062 0.0664062 2.039062 0.15625 1.71875 0.15625 C 1.394531 0.15625 1.140625 0.0703125 0.953125 -0.09375 C 0.773438 -0.269531 0.6875 -0.519531 0.6875 -0.84375 Z M 0.6875 -0.84375" transform="translate(220.991 261.333)"/></g></g></g><g fill="#FFF"><g><g><path d="M 4.734375 -7.203125 C 4.046875 -7.203125 3.515625 -6.941406 3.140625 -6.421875 C 2.765625 -5.910156 2.578125 -5.191406 2.578125 -4.265625 C 2.578125 -2.347656 3.296875 -1.390625 4.734375 -1.390625 C 5.335938 -1.390625 6.066406 -1.539062 6.921875 -1.84375 L 6.921875 -0.328125 C 6.210938 -0.0234375 5.425781 0.125 4.5625 0.125 C 3.3125 0.125 2.351562 -0.253906 1.6875 -1.015625 C 1.03125 -1.773438 0.703125 -2.863281 0.703125 -4.28125 C 0.703125 -5.175781 0.863281 -5.957031 1.1875 -6.625 C 1.507812 -7.300781 1.972656 -7.816406 2.578125 -8.171875 C 3.191406 -8.535156 3.910156 -8.71875 4.734375 -8.71875 C 5.566406 -8.71875 6.40625 -8.515625 7.25 -8.109375 L 6.65625 -6.625 C 6.332031 -6.78125 6.007812 -6.914062 5.6875 -7.03125 C 5.363281 -7.144531 5.046875 -7.203125 4.734375 -7.203125 Z M 4.734375 -7.203125" transform="translate(227.572 261.333)"/></g></g></g><g fill="#FFF"><g><g><path d="M 8.875 -4.3125 C 8.875 -2.882812 8.519531 -1.785156 7.8125 -1.015625 C 7.113281 -0.253906 6.101562 0.125 4.78125 0.125 C 3.46875 0.125 2.457031 -0.253906 1.75 -1.015625 C 1.050781 -1.785156 0.703125 -2.882812 0.703125 -4.3125 C 0.703125 -5.75 1.050781 -6.84375 1.75 -7.59375 C 2.457031 -8.34375 3.472656 -8.71875 4.796875 -8.71875 C 6.117188 -8.71875 7.128906 -8.335938 7.828125 -7.578125 C 8.523438 -6.816406 8.875 -5.726562 8.875 -4.3125 Z M 2.609375 -4.3125 C 2.609375 -3.34375 2.789062 -2.613281 3.15625 -2.125 C 3.519531 -1.644531 4.0625 -1.40625 4.78125 -1.40625 C 6.238281 -1.40625 6.96875 -2.375 6.96875 -4.3125 C 6.96875 -6.238281 6.242188 -7.203125 4.796875 -7.203125 C 4.078125 -7.203125 3.53125 -6.957031 3.15625 -6.46875 C 2.789062 -5.988281 2.609375 -5.269531 2.609375 -4.3125 Z M 2.609375 -4.3125" transform="translate(238.385 261.333)"/></g></g></g><g fill="#FFF"><g><g><path d="M 4.71875 0 L 2.65625 -6.734375 L 2.59375 -6.734375 C 2.664062 -5.367188 2.703125 -4.457031 2.703125 -4 L 2.703125 0 L 1.078125 0 L 1.078125 -8.59375 L 3.5625 -8.59375 L 5.59375 -2.015625 L 5.625 -2.015625 L 7.78125 -8.59375 L 10.265625 -8.59375 L 10.265625 0 L 8.5625 0 L 8.5625 -4.0625 C 8.5625 -4.257812 8.5625 -4.484375 8.5625 -4.734375 C 8.570312 -4.984375 8.601562 -5.644531 8.65625 -6.71875 L 8.59375 -6.71875 L 6.390625 0 Z M 4.71875 0" transform="translate(251.107 261.333)"/></g></g></g></svg>